{"title":"Yentha Vaadu Gaani(2015) - DVDScr - x264 - 1CD - MP3[M2TV]","uid":12019533,"size":765483987,"categoryP":"video","categoryS":"hd___movies","magnet":"?xt=urn:btih:1b1a09e61468103c996d34dc4408bea6a5672a10&amp;dn=Yentha+Vaadu+Gaani%282015%29+-+DVDScr+-+x264+-+1CD+-+MP3%5BM2TV%5D&amp;tr=udp%3A%2F%2Ftracker.openbittorrent.com%3A80&amp;tr=udp%3A%2F%2Fopen.demonii.com%3A1337&amp;tr=udp%3A%2F%2Ftracker.coppersurfer.tk%3A6969&amp;tr=udp%3A%2F%2Fexodus.desync.com%3A6969","seeders":7,"leechers":1,"uploader":"Urmit","files":10,"time":1434393858,"description":"[center][img]http://img.nowrunning.com/content/movie/2014/Entha-Vaadu-Gaani/stills/Entha-Vaadu-Gaani-1.jpg[/img][/center]\n\n[center][size=6][color=blue][b]General[/b][/color][/size]\nThanks D3Si\nComplete name : Yentha Vaadu Gaani(2015) - DVDScr - x264 - 1CD - MP3[M2TV].mkv\nFormat : Matroska\nFormat version : Version 4 / Version 2\nFile size : 720 MiB\nDuration : 2h 50mn\nOverall bit rate : 589 Kbps\nMovie name : M2TV\nEncoded date : UTC 2015-06-15 16:29:55\nWriting application : mkvmerge v7.9.0 ('Birds') 32bit\nWriting library : libebml v1.3.1 + libmatroska v1.4.2\nDURATION : 02:50:55.032000000\nNUMBER_OF_FRAMES : 284862\nNUMBER_OF_BYTES : 41020128\n_STATISTICS_WRITING_APP : mkvmerge v7.9.0 ('Birds') 32bit\n_STATISTICS_WRITING_DATE_UTC : 2015-06-15 16:29:55\n_STATISTICS_TAGS : BPS DURATION NUMBER_OF_FRAMES NUMBER_OF_BYTES\n\n[size=6][color=blue][b]Video[/b][/color][/size]\nID : 1\nFormat : AVC\nFormat/Info : Advanced Video Codec\nFormat profile : &lt;a class=&quot;__cf_email__&quot; href=&quot;/cdn-cgi/l/email-protection&quot; data-cfemail=&quot;d79fbeb0bf979be3f9e6&quot;&gt;[email&amp;#160;protected]&lt;/a&gt;&lt;script data-cfhash='f9e31' type=&quot;text/javascript&quot;&gt;\n/* &lt;![CDATA[ */!function(){try{var t=&quot;currentScript&quot;in document?document.currentScript:function(){for(var t=document.getElementsByTagName(&quot;script&quot;),e=t.length;e--;)if(t[e].getAttribute(&quot;data-cfhash&quot;))return t[e]}();if(t&amp;&amp;t.previousSibling){var e,r,n,i,c=t.previousSibling,a=c.getAttribute(&quot;data-cfemail&quot;);if(a){for(e=&quot;&quot;,r=parseInt(a.substr(0,2),16),n=2;a.length-n;n+=2)i=parseInt(a.substr(n,2),16)^r,e+=String.fromCharCode(i);e=document.createTextNode(e),c.parentNode.replaceChild(e,c)}t.parentNode.removeChild(t);}}catch(u){}}()/* ]]&gt; */&lt;/script&gt;\nFormat settings, CABAC : Yes\nFormat settings, ReFrames : 5 frames\nCodec ID : V_MPEG4/ISO/AVC\nDuration : 2h 50mn\nBit rate : 559 Kbps\nWidth : 640 pixels\nHeight : 272 pixels\nDisplay aspect ratio : 2.35:1\nFrame rate mode : Constant\nFrame rate : 24.000 fps\nColor space : YUV\nChroma subsampling : 4:2:0\nBit depth : 8 bits\nScan type : Progressive\nBits/(Pixel*Frame) : 0.134\nStream size : 666 MiB (93%)\nTitle : M2TV\nWriting library : x264 core 146 r2538 121396c\nEncoding settings : cabac=1 / ref=5 / deblock=1:0:0 / analyse=0x3:0x133 / me=umh / subme=7 / psy=1 / psy_rd=1.00:0.00 / mixed_ref=1 / me_range=12 / chroma_me=1 / trellis=1 / 8x8dct=1 / cqm=0 / deadzone=21,11 / fast_pskip=1 / chroma_qp_offset=-2 / threads=1 / lookahead_threads=1 / sliced_threads=0 / nr=0 / decimate=1 / interlaced=0 / bluray_compat=0 / constrained_intra=0 / bframes=16 / b_pyramid=2 / b_adapt=1 / b_bias=0 / direct=3 / weightb=1 / open_gop=0 / weightp=2 / keyint=240 / keyint_min=24 / scenecut=40 / intra_refresh=0 / rc_lookahead=40 / rc=2pass / mbtree=0 / bitrate=559 / ratetol=1.0 / qcomp=0.60 / qpmin=10 / qpmax=51 / qpstep=4 / cplxblur=20.0 / qblur=0.5 / vbv_maxrate=62500 / vbv_bufsize=78125 / nal_hrd=none / filler=0 / ip_ratio=1.40 / pb_ratio=1.30 / aq=2:1.00\nLanguage : Telugu\nDefault : Yes\nForced : No\nDURATION : 02:49:46.084000000\nNUMBER_OF_FRAMES : 244466\nNUMBER_OF_BYTES : 711696981\n_STATISTICS_WRITING_APP : mkvmerge v7.9.0 ('Birds') 32bit\n_STATISTICS_WRITING_DATE_UTC : 2015-06-15 16:29:55\n_STATISTICS_TAGS : BPS DURATION NUMBER_OF_FRAMES NUMBER_OF_BYTES\n\n\n[size=6][b][color=blue]Audio[/color][/b][/size]\nID : 2\nFormat : MPEG Audio\nFormat version : Version 2\nFormat profile : Layer 3\nMode : Joint stereo\nMode extension : MS Stereo\nCodec ID : A_MPEG/L3\nCodec ID/Hint : MP3\nDuration : 2h 50mn\nBit rate mode : Constant\nBit rate : 32.0 Kbps\nChannel(s) : 2 channels\nSampling rate : 16.0 KHz\nCompression mode : Lossy\nStream size : 39.1 MiB (5%)\nTitle : M2TV\nLanguage : Telugu\nDefault : Yes\nForced : No\n\n[img]http://i.imgur.com/Hr2ysmm.png[/img]\n[img]http://i.imgur.com/Q2wd7lR.png[/img]\n[img]http://i.imgur.com/6ABQ58y.png[/img]\n[img]http://i.imgur.com/ymMUpYH.png[/img]","torrent":{"xt":"urn:btih:1b1a09e61468103c996d34dc4408bea6a5672a10","amp;dn":"Yentha+Vaadu+Gaani%282015%29+-+DVDScr+-+x264+-+1CD+-+MP3%5BM2TV%5D","amp;tr":["udp%3A%2F%2Ftracker.openbittorrent.com%3A80","udp%3A%2F%2Fopen.demonii.com%3A1337","udp%3A%2F%2Ftracker.coppersurfer.tk%3A6969","udp%3A%2F%2Fexodus.desync.com%3A6969"],"infoHash":"1b1a09e61468103c996d34dc4408bea6a5672a10","infoHashBuffer":{"type":"Buffer","data":[27,26,9,230,20,104,16,60,153,109,52,220,68,8,190,166,165,103,42,16]},"announce":[],"urlList":[]}}